<svg xmlns="http://www.w3.org/2000/svg" xmlns:xlink="http://www.w3.org/1999/xlink" viewBox="0 0 400 400" width="400" height="400" data-date-format="longDate">
  <svg xmlns="http://www.w3.org/2000/svg" xmlns:xlink="http://www.w3.org/1999/xlink" viewBox="0 0 400 400" width="380" height="380" x="10" y="10">
	<path fill="#8F94AC" d="M58.4,58.8C22.3,95,0.1,144.9,0.1,200v0.1c16.9-19.9,30.5-42.2,40.3-66C50.2,110.3,56.4,84.9,58.4,58.8z"/>
	<path fill="#8F94AC" d="M0.1,200.3c0.1,55.1,22.5,105,58.6,141.2c-2.1-26-8.3-51.4-18.2-75.2S17,220.1,0.1,200.3z"/>
	<path fill="#8F94AC" d="M58.5,58.7C110.6,54.5,160,34,199.7,0.1C144.5,0.2,94.7,22.6,58.5,58.7z"/>
	<path fill="#8F94AC" d="M58.9,341.6c36.1,36.1,86,58.3,141.1,58.3h0.1c-19.9-16.9-42.2-30.5-66-40.3   C110.2,349.8,84.9,343.6,58.9,341.6z"/>
	<path fill="#8F94AC" d="M200,0.1h-0.1c39.8,33.8,89.2,54.2,141.3,58.4C305,22.4,255.1,0.1,200,0.1z"/>
	<path fill="#8F94AC" d="M200.3,399.9c55.1-0.1,105-22.5,141.2-58.6c-26,2.1-51.4,8.3-75.2,18.2C242.4,369.4,220.1,383,200.3,399.9z"/>
	<path fill="#8F94AC" d="M399.9,199.7c-0.1-55.2-22.5-105-58.7-141.2c2.1,26,8.3,51.4,18.2,75.2C369.4,157.6,383,179.8,399.9,199.7z"/>
	<path fill="#8F94AC" d="M341.6,341.2c36-36.2,58.3-86.1,58.3-141.2v-0.1c-16.9,19.9-30.5,42.2-40.3,66   C349.8,289.8,343.6,315.1,341.6,341.2z"/>
<path fill="#BECAD8" d="M399.9,199.7v0.2c-16.9,19.9-30.5,42.2-40.3,66c-9.8,23.9-16,49.2-18,75.3l-0.1,0.1c-26,2.1-51.4,8.3-75.2,18.2  c-23.8,9.9-46.1,23.5-66,40.5h-0.1c-19.9-16.9-42.2-30.5-66.1-40.3c-23.8-9.8-49.2-16-75.2-18c-0.1-0.1-0.1-0.1-0.2-0.1  c-2.1-26-8.3-51.4-18.2-75.2s-23.5-46.1-40.5-66v-0.1c16.9-19.9,30.5-42.2,40.3-66.1s16-49.2,18-75.2c0,0,0.1-0.1,0.1-0.1  C110.6,54.5,160,34,199.7,0.1h0.2c39.8,33.8,89.2,54.2,141.3,58.4c0,0,0.1,0,0.1,0.1c2.1,26,8.3,51.4,18.2,75.2  C369.4,157.6,383,179.9,399.9,199.7z"/>
<path fill="#8F94AC" d="M200.7,354.2c-84.8,0-153.9-69-153.9-153.9s69-153.9,153.9-153.9s153.9,69,153.9,153.9S285.5,354.2,200.7,354.2  z M200.7,48.5c-83.7,0-151.8,68.1-151.8,151.8S117,352,200.7,352S352.5,284,352.5,200.3S284.4,48.5,200.7,48.5z"/>
</svg>
  <svg xmlns="http://www.w3.org/2000/svg" xmlns:xlink="http://www.w3.org/1999/xlink" version="1.1" id="&#x421;&#x43B;&#x43E;&#x439;_1" viewBox="0 0 80 80" width="179" height="179" x="110" y="188">
<path fill="#dbdbdb" d="M37.5,57c-3.5,0-7.1-0.5-10.5-1.6c0.1-1.4-0.3-3.2-2.4-4.6c-0.1,1.1,0,2.9,1.2,4.2c-0.4-0.1-0.8-0.3-1.2-0.4   c-0.6-0.2-1.1-0.5-1.6-0.7c0.3-1.5,0.2-3.3-1.8-5c-0.2,1.2-0.3,3.1,0.9,4.5c-1-0.5-1.9-1-2.9-1.6c0.5-1.4,0.6-3.2-1.2-5.2   c-0.4,1.1-0.7,3,0.4,4.6c-0.8-0.5-1.5-1.1-2.2-1.6c0.6-1.3,0.9-3.1-0.7-5.3c-0.5,1.1-1,2.9-0.2,4.6c-0.6-0.5-1.1-1-1.6-1.5   c-0.2-0.2-0.3-0.4-0.5-0.5c0.7-1.3,1.2-3-0.2-5.3c-0.6,1-1.2,2.7-0.6,4.5c-0.6-0.6-1.1-1.3-1.7-2c0.9-1.2,1.6-2.9,0.5-5.3   c-0.7,1-1.6,2.7-1.1,4.5c-0.5-0.7-1-1.5-1.5-2.2c1-1.1,1.9-2.7,1.1-5.2c-0.8,0.9-1.9,2.4-1.6,4.3c-0.4-0.7-0.8-1.5-1.2-2.3   c1.2-0.9,2.3-2.3,1.9-5c-1,0.8-2.3,2.2-2.3,4.2c-0.1-0.2-0.2-0.4-0.3-0.6c-0.3-0.6-0.5-1.3-0.8-2c1.3-0.8,2.6-2.1,2.4-4.8   c-1.1,0.7-2.6,2-2.7,4.1c-0.3-0.9-0.6-1.9-0.8-2.8c1.4-0.7,2.8-1.9,2.8-4.7c-1.1,0.6-2.8,1.9-2.9,4c0,0,0-0.1,0-0.1   c-0.1-0.6-0.2-1.1-0.3-1.6c-0.1-0.4-0.1-0.8-0.2-1.2C4.5,26,4.9,24.2,3.4,22c-0.6,1.2-1.3,3.5,0.2,5.4c0,0.4,0.1,0.8,0.1,1.2   c0.1,0.6,0.2,1.1,0.3,1.7c0,0.1,0,0.1,0,0.2c-0.6-1.3-1.6-2.6-4.1-2.9c0.5,1.3,1.7,3.4,4.2,3.6c0.2,1,0.5,1.9,0.7,2.8   c-0.7-1.2-1.8-2.3-4.2-2.5c0.6,1.3,1.9,3.2,4.4,3.3c0.2,0.7,0.5,1.3,0.7,2C6,36.8,6.1,37,6.2,37.2c-0.8-1.1-2-2-4.3-2   c0.7,1.2,2.2,3,4.7,2.8c0.4,0.8,0.8,1.7,1.3,2.5c-0.9-1-2.3-1.7-4.6-1.3c0.9,1.1,2.6,2.6,5,2.1c0.5,0.8,0.9,1.5,1.4,2.2   c-1-0.8-2.5-1.2-4.5-0.6c1,1,2.9,2.3,5.2,1.5c0.5,0.7,1.1,1.4,1.7,2.1c-1.1-0.6-2.6-0.9-4.6-0.1c1.1,0.8,3.1,1.9,5.3,0.9   c0.2,0.2,0.3,0.4,0.5,0.5c0.5,0.5,1,0.9,1.5,1.4c-1.1-0.4-2.5-0.5-4.3,0.4c1.2,0.7,3.2,1.6,5.3,0.4c0.6,0.5,1.2,1,1.9,1.4   c-1.1-0.3-2.5-0.1-4,1c1.2,0.6,3.3,1.2,5.2-0.1c0.8,0.5,1.6,1,2.4,1.4c-1.1-0.1-2.4,0.3-3.7,1.5c1.3,0.4,3.4,0.8,5.1-0.7   c0.6,0.3,1.2,0.6,1.8,0.8c0.3,0.1,0.6,0.3,1,0.4c-1.1,0-2.4,0.5-3.6,1.9c1.3,0.3,3.5,0.4,5.1-1.4c3.5,1.2,7.1,1.8,10.8,1.8   c0.3,0,0.5-0.2,0.5-0.5C38,57.3,37.8,57,37.5,57z"/>
	<path fill="#dbdbdb" d="M74.8,34.6c2.5-0.1,3.8-2,4.4-3.3c-2.3,0.2-3.5,1.3-4.1,2.4c0.3-0.9,0.5-1.8,0.7-2.8c2.5-0.2,3.7-2.2,4.2-3.6   c-2.4,0.4-3.5,1.6-4,2.8c0,0,0-0.1,0-0.1c0.1-0.5,0.2-1.1,0.3-1.7c0-0.4,0.1-0.8,0.1-1.2c1.5-2,0.8-4.2,0.2-5.4   c-1.6,2.2-1.1,4.1-0.4,5.4c-0.1,0.4-0.1,0.8-0.2,1.2c-0.1,0.5-0.2,1.1-0.3,1.6c0,0.1,0,0.1,0,0.2c-0.2-2.2-1.8-3.4-2.9-4.1   c0,2.8,1.4,4,2.8,4.7c-0.2,1-0.5,1.9-0.8,2.9c0-2.1-1.6-3.5-2.7-4.2c-0.2,2.7,1.2,4.1,2.5,4.8c-0.2,0.7-0.5,1.3-0.8,2   c-0.1,0.2-0.2,0.4-0.3,0.6c0.1-2-1.3-3.5-2.3-4.2c-0.4,2.7,0.7,4.1,1.9,5c-0.4,0.8-0.8,1.6-1.2,2.3c0.3-1.9-0.8-3.5-1.6-4.4   c-0.8,2.6,0.1,4.2,1.1,5.2c-0.5,0.8-1,1.5-1.5,2.3c0.5-1.9-0.4-3.6-1.1-4.6c-1.1,2.5-0.4,4.1,0.5,5.3c-0.5,0.7-1.1,1.4-1.7,2   c0.7-1.8,0-3.5-0.6-4.5c-1.4,2.3-0.9,4-0.2,5.3c-0.2,0.2-0.3,0.4-0.5,0.5c-0.5,0.5-1.1,1-1.7,1.5c0.9-1.7,0.4-3.5-0.1-4.6   c-1.6,2.1-1.3,3.9-0.7,5.3c-0.7,0.6-1.5,1.1-2.2,1.7c1.1-1.6,0.8-3.5,0.4-4.6c-1.8,2-1.7,3.8-1.2,5.2c-0.9,0.6-1.9,1.1-2.9,1.6   c1.2-1.5,1.2-3.3,0.9-4.5c-2,1.7-2.1,3.5-1.8,5c-0.5,0.3-1.1,0.5-1.6,0.7c-0.4,0.2-0.8,0.3-1.2,0.5c1.2-1.3,1.3-3,1.3-4.2   c-2.2,1.4-2.5,3.1-2.4,4.6c-3.4,1.1-6.9,1.6-10.5,1.6c-0.3,0-0.5,0.2-0.5,0.5c0,0.3,0.2,0.5,0.5,0.5c3.7,0,7.3-0.6,10.8-1.8   c1.5,1.8,3.8,1.7,5.1,1.4c-1.2-1.4-2.5-1.9-3.6-1.9c0.3-0.1,0.6-0.2,1-0.4c0.6-0.2,1.2-0.5,1.7-0.8c1.7,1.5,3.9,1.1,5.1,0.7   c-1.3-1.2-2.6-1.5-3.7-1.5c0.8-0.4,1.6-0.9,2.4-1.4c1.9,1.3,4,0.7,5.2,0.1c-1.5-1.1-2.9-1.2-4-1c0.6-0.5,1.2-0.9,1.8-1.4   c2.1,1.2,4.1,0.3,5.3-0.4c-1.8-1-3.2-0.9-4.3-0.5c0.5-0.4,1-0.9,1.4-1.4c0.2-0.2,0.3-0.4,0.5-0.5c2.2,1,4.2,0,5.3-0.9   c-2-0.9-3.4-0.6-4.5,0.1c0.6-0.7,1.1-1.4,1.7-2.1c2.3,0.8,4.2-0.5,5.2-1.5c-2.1-0.6-3.5-0.1-4.5,0.6c0.5-0.7,1-1.4,1.4-2.2   c2.4,0.5,4.1-1,5-2.1c-2.2-0.4-3.6,0.4-4.6,1.3c0.4-0.8,0.9-1.6,1.2-2.4c2.5,0.2,4-1.6,4.7-2.8c-2.2,0-3.5,0.9-4.3,1.9   c0.1-0.2,0.1-0.3,0.2-0.5C74.4,36,74.6,35.3,74.8,34.6z"/>
</svg>
</svg>
